<svg width="180" height="78" viewBox="0 0 180 78" fill="none" xmlns="http://www.w3.org/2000/svg">
<path d="M0 2.45436V0H0.954603L7.89717 0.175309C11.947 0.233749 16.2861 0.233749 20.9145 0.175309C26.295 0.0584356 28.9563 0 28.8984 0H29.9398V2.45436V4.90873H25.6007C21.5509 4.96717 19.3524 5.1717 19.0053 5.52232C18.8896 5.58076 18.8317 13.7328 18.8317 29.9783V54.259L19.0053 54.4343C19.0631 54.4928 19.2367 54.6096 19.526 54.7849C20.1624 55.0187 23.2287 55.0771 28.7249 54.9603C29.3034 54.9018 29.7084 54.8726 29.9398 54.8726C35.5517 54.3467 39.3701 52.0384 41.3951 47.9478C42.61 45.6687 43.4778 42.2209 43.9985 37.6044C44.1142 36.3772 44.201 35.676 44.2589 35.5006V35.0624H46.4284H48.598V35.5006C48.5401 35.6175 48.1351 39.5912 47.383 47.4218C46.6309 55.3109 46.2259 59.3138 46.1681 59.4307V59.869H23.084H0V57.4146V54.9603H2.4299C6.47973 54.9603 8.62036 54.7557 8.85177 54.3467V5.52232C8.62036 5.11326 6.47973 4.90873 2.4299 4.90873H0V2.45436Z" fill="black"/>
<path d="M71.8556 20.7744C77.0625 20.1316 81.7777 21.5926 86.0011 25.1572C86.406 25.5079 86.7821 25.8585 87.1292 26.2091C87.9971 27.0857 88.5177 27.67 88.6913 27.9622C92.4519 32.8125 93.8693 38.2472 92.9436 44.2662C92.8858 44.5584 92.8279 44.8506 92.7701 45.1428C91.7287 50.5775 88.8649 54.7849 84.1786 57.7652C82.443 58.8755 80.5627 59.6937 78.5378 60.2196C77.2071 60.5702 75.7029 60.7455 74.0251 60.7455C72.2895 60.7455 70.7563 60.5702 69.4257 60.2196C63.9873 58.8171 59.9086 55.6615 57.1894 50.7528C55.5695 47.7725 54.7595 44.5584 54.7595 41.1106C54.7595 36.8447 55.8877 33.0171 58.144 29.6277C61.4996 24.4268 66.0701 21.4757 71.8556 20.7744ZM75.4136 24.8066C72.1738 24.3391 69.4546 25.1572 67.2561 27.261C65.5205 28.8388 64.537 31.4977 64.3055 35.2377C64.2477 35.4714 64.2188 35.7344 64.2188 36.0266C63.9873 39.0069 64.0163 42.5131 64.3055 46.5453C64.537 48.7075 64.9419 50.3437 65.5205 51.454C66.7354 54.1421 68.9628 55.7492 72.2027 56.2751C73.3019 56.5088 74.4301 56.5381 75.5872 56.3628C78.8271 55.8368 81.1123 54.2006 82.443 51.454C83.0215 50.3437 83.4265 48.7075 83.658 46.5453C83.9472 43.8572 83.9762 40.497 83.7447 36.4649C83.7447 36.2895 83.7447 36.1434 83.7447 36.0266C83.5133 31.9944 82.5876 29.1602 80.9677 27.524C80.9098 27.4655 80.8231 27.3779 80.7074 27.261C79.261 25.8585 77.4964 25.0404 75.4136 24.8066Z" fill="black"/>
<path d="M131.735 20.2485H133.905C135.351 20.5407 136.421 21.4173 137.116 22.8782C138.273 25.2157 138.099 27.0565 136.595 28.4005C136.016 28.9264 135.293 29.2186 134.425 29.2771C132.748 29.3355 131.562 28.605 130.867 27.0857C130.752 26.7935 130.665 26.4721 130.607 26.1215C130.491 25.4786 130.578 25.0696 130.867 24.8943L132.082 24.8066H132.169L133.384 24.719L133.297 24.5437C133.182 24.4268 132.892 24.3683 132.429 24.3683C130.752 24.3683 129.103 24.9527 127.483 26.1215L127.136 26.3844L127.743 27.1733C128.611 28.3421 129.276 29.6569 129.739 31.1178C130.318 33.3385 130.318 35.5006 129.739 37.6044C129.276 39.0653 128.64 40.3509 127.83 41.4612C126.962 42.6884 126.037 43.6526 125.053 44.3539C121.235 47.3342 116.809 48.3276 111.775 47.3342C110.271 47.042 108.825 46.5745 107.436 45.9317L106.482 45.4058L106.221 46.0194C105.585 47.2465 105.498 48.5906 105.961 50.0515C106.424 51.3956 107.292 52.3014 108.564 52.7689C108.854 52.8857 111.11 52.9734 115.333 53.0318C120.193 53.0903 123.346 53.2656 124.793 53.5578C128.322 54.0837 131.07 55.3109 133.037 57.2393C135.235 59.2846 136.421 62.0604 136.595 65.5666C136.653 67.7288 135.988 69.6864 134.599 71.4396C132.979 73.4849 130.52 75.1211 127.223 76.3483C122.189 78.1598 116.838 78.4813 111.168 77.3125C110.763 77.2541 110.358 77.1664 109.953 77.0495C108.333 76.6405 106.771 76.0853 105.267 75.3841C100.118 72.7544 97.7456 69.4235 98.1506 65.3913C98.2084 65.216 98.2373 65.0407 98.2373 64.8654C98.3531 64.2226 98.6423 63.4044 99.1052 62.411C99.973 60.5995 101.333 59.1677 103.184 58.1159L103.791 57.7652L103.184 57.064C100.928 54.1421 100.32 50.782 101.361 46.9836C101.94 45.5226 102.461 44.4415 102.924 43.7403C103.155 43.3897 103.3 43.1851 103.357 43.1267C103.357 43.0683 103.242 42.8637 103.01 42.5131C101.853 41.3444 100.928 39.7081 100.233 37.6044C99.4812 34.741 99.7416 31.936 101.014 29.1894C101.766 27.7869 102.576 26.6474 103.444 25.7708C106.395 22.6737 110.242 21.1251 114.986 21.1251C118.168 21.1251 121.032 21.8848 123.578 23.4041C123.925 23.6379 124.127 23.7547 124.185 23.7547L124.793 23.2288C126.76 21.5926 129.074 20.5991 131.735 20.2485ZM116.288 25.4202C113.337 25.0112 111.139 25.7124 109.693 27.524C109.519 27.7577 109.374 27.9915 109.259 28.2252C108.796 29.2186 108.564 31.2639 108.564 34.3611C108.564 37.5167 108.796 39.562 109.259 40.497C109.953 42.1333 111.428 43.0975 113.685 43.3897C116.635 43.7987 118.834 43.0975 120.28 41.2859C120.454 41.0522 120.598 40.7892 120.714 40.497C121.235 39.4452 121.495 37.3999 121.495 34.3611C121.495 31.3808 121.235 29.3355 120.714 28.2252C119.962 26.6474 118.486 25.7124 116.288 25.4202ZM120.887 60.3949C120.425 60.3365 118.313 60.3073 114.552 60.3073C110.792 60.3073 108.564 60.4826 107.87 60.8332C106.887 61.3591 106.106 62.1773 105.527 63.2876C105.122 64.1057 104.92 65.0407 104.92 66.0926C104.92 66.8522 104.977 67.3782 105.093 67.6704C105.845 69.7741 107.812 71.4396 110.994 72.6667C112.904 73.3096 115.044 73.631 117.416 73.631C119.73 73.631 121.871 73.3096 123.838 72.6667C126.847 71.5564 128.785 69.891 129.652 67.6704C129.942 66.7938 129.971 65.8588 129.739 64.8654C128.814 62.2357 125.863 60.7455 120.887 60.3949Z" fill="black"/>
<path d="M158.638 20.7744C163.845 20.1316 168.56 21.5926 172.783 25.1572C173.188 25.5079 173.564 25.8585 173.911 26.2091C174.779 27.0857 175.3 27.67 175.473 27.9622C179.234 32.8125 180.651 38.2472 179.726 44.2662C179.668 44.5584 179.61 44.8506 179.552 45.1428C178.511 50.5775 175.647 54.7849 170.961 57.7652C169.225 58.8755 167.345 59.6937 165.32 60.2196C163.989 60.5702 162.485 60.7455 160.807 60.7455C159.072 60.7455 157.538 60.5702 156.208 60.2196C150.769 58.8171 146.691 55.6615 143.971 50.7528C142.352 47.7725 141.542 44.5584 141.542 41.1106C141.542 36.8447 142.67 33.0171 144.926 29.6277C148.282 24.4268 152.852 21.4757 158.638 20.7744ZM162.196 24.8066C158.956 24.3391 156.237 25.1572 154.038 27.261C152.303 28.8388 151.319 31.4977 151.088 35.2377C151.03 35.4714 151.001 35.7344 151.001 36.0266C150.769 39.0069 150.798 42.5131 151.088 46.5453C151.319 48.7075 151.724 50.3437 152.303 51.454C153.518 54.1421 155.745 55.7492 158.985 56.2751C160.084 56.5088 161.212 56.5381 162.369 56.3628C165.609 55.8368 167.894 54.2006 169.225 51.454C169.804 50.3437 170.209 48.7075 170.44 46.5453C170.729 43.8572 170.758 40.497 170.527 36.4649C170.527 36.2895 170.527 36.1434 170.527 36.0266C170.295 31.9944 169.37 29.1602 167.75 27.524C167.692 27.4655 167.605 27.3779 167.489 27.261C166.043 25.8585 164.279 25.0404 162.196 24.8066Z" fill="black"/>
</svg>
